<svg width="150" height="150" viewBox="0 0 150 150" fill="none" xmlns="http://www.w3.org/2000/svg">
<rect x="0.5" y="0.5" width="149" height="149" rx="22.5" fill="#0A0A0A" stroke="#D9D9D9"/>
<path d="M67 37H99.6667C105.926 37 111 42.0741 111 48.3333V48.3333C111 51.4629 108.463 54 105.333 54H67V37Z" fill="#BBBF00"/>
<path d="M64 55H102.526C103.34 55 104 55.6598 104 56.4737V56.4737C104 63.3918 98.3918 69 91.4737 69H64V55Z" fill="#BBBF00"/>
<path d="M65 112H89.1818C95.1565 112 100 116.843 100 122.818V122.818C100 124.575 98.5755 126 96.8182 126H65V112Z" fill="#136100"/>
<ellipse cx="65.5" cy="96" rx="27.5" ry="30" fill="#25B800"/>
<path d="M78.5171 96.3196C80.168 97.3431 80.903 99.4612 79.7254 101.006C78.8811 102.113 77.8535 103.059 76.6665 103.812C74.5413 105.162 71.9681 105.858 69.1661 105.841C66.364 105.824 63.4161 105.095 60.5734 103.716C57.7306 102.336 55.0772 100.347 52.839 97.918C50.6009 95.4889 48.8442 92.6917 47.7187 89.7645C46.5932 86.8373 46.1322 83.8668 46.3748 81.1059C46.6175 78.345 47.5566 75.8756 49.1124 73.9078C49.9972 72.7886 51.0665 71.8506 52.2871 71.1158C53.9302 70.1265 55.9397 71.0392 56.8111 72.7479L63.8475 86.5453C64.1792 87.1958 64.6827 87.7431 65.3033 88.1278L78.5171 96.3196Z" fill="#136100"/>
<ellipse cx="65.5" cy="49.0119" rx="21.5" ry="22.0119" fill="#25B800"/>
<path d="M77.0474 30.9691C77.6682 30.2917 77.6269 29.2176 76.8166 28.7843C75.4948 28.0777 73.9094 27.7918 72.2125 27.972C69.8859 28.2191 67.5072 29.3254 65.517 31.0862C63.5267 32.847 62.0596 35.143 61.3874 37.5491C60.9106 39.2557 60.8565 40.9358 61.2142 42.4337C61.4428 43.3909 62.5747 43.6652 63.3768 43.095V43.095C64.039 42.6242 64.2268 41.7364 64.0549 40.9424C63.8347 39.926 63.8816 38.7954 64.2023 37.6475C64.6717 35.9672 65.6963 34.3638 67.0862 33.1341C68.4761 31.9044 70.1372 31.1318 71.762 30.9593C72.7586 30.8535 73.7 30.9778 74.5233 31.3135C75.3741 31.6604 76.4267 31.6465 77.0474 30.9691V30.9691Z" fill="#136100"/>
<circle cx="73.5" cy="40.5" r="8.5" fill="white"/>
<circle cx="78.5" cy="38.5" r="2.5" fill="black"/>
</svg>
